<svg width="175" height="208" viewBox="0 0 175 208" fill="none" xmlns="http://www.w3.org/2000/svg">
<path d="M89.5247 5.09375L168.477 52.4822C169.662 53.1933 170.387 54.4738 170.387 55.8555V151.175C170.387 152.557 169.662 153.837 168.477 154.548L89.5247 201.937C88.2785 202.685 86.7215 202.685 85.4753 201.937L6.52283 154.548C5.33811 153.837 4.61326 152.557 4.61326 151.175V55.8555C4.61326 54.4738 5.33811 53.1933 6.52283 52.4822L85.4753 5.09375C86.7215 4.34577 88.2785 4.34577 89.5247 5.09375Z" fill="#030B14" stroke="#87EFFF" stroke-width="8.02752"/>
<mask id="path-2-outside-1_33_2" maskUnits="userSpaceOnUse" x="51.9679" y="67.8945" width="70" height="73" fill="black">
<rect fill="white" x="51.9679" y="67.8945" width="70" height="73"/>
<path d="M54.3342 138.894V135.675C56.8059 135.545 58.4971 134.992 59.4077 134.016C60.3183 132.975 60.8062 131.577 60.8712 129.821C61.0013 127.999 61.0664 125.95 61.0664 123.674V81.5243C61.0664 80.2234 61.0989 78.9875 61.1639 77.8167C61.229 76.5808 61.294 75.4751 61.3591 74.4994C60.1883 74.5644 59.0174 74.6295 57.8466 74.6945C56.6758 74.7596 55.505 74.8246 54.3342 74.8897V70.5967H76.287V73.8164C73.8803 73.8815 72.1892 74.4343 71.2135 75.4751C70.3028 76.5158 69.7825 77.9143 69.6524 79.6705C69.5873 81.4267 69.5548 83.4757 69.5548 85.8173V102.014H104.484V81.5243C104.484 80.2234 104.517 78.9875 104.582 77.8167C104.647 76.5808 104.712 75.4751 104.777 74.4994C103.606 74.5644 102.435 74.6295 101.265 74.6945C100.094 74.7596 98.9229 74.8246 97.752 74.8897V70.5967H119.705V73.8164C117.298 73.8815 115.607 74.4343 114.631 75.4751C113.721 76.5158 113.2 77.9143 113.07 79.6705C113.005 81.4267 112.973 83.4757 112.973 85.8173V127.284C112.973 129.04 112.94 130.569 112.875 131.87C112.875 133.105 112.81 134.146 112.68 134.992C113.851 134.927 115.022 134.862 116.192 134.797C117.363 134.732 118.534 134.667 119.705 134.601V138.894H97.752V135.675C100.224 135.545 101.915 134.992 102.826 134.016C103.736 132.975 104.224 131.577 104.289 129.821C104.419 127.999 104.484 125.95 104.484 123.674V105.916L69.5548 106.307V127.284C69.5548 129.04 69.5223 130.569 69.4572 131.87C69.4572 133.105 69.3922 134.146 69.2621 134.992C70.4329 134.927 71.6037 134.862 72.7746 134.797C73.9454 134.732 75.1162 134.667 76.287 134.601V138.894H54.3342Z"/>
</mask>
<path d="M54.3342 138.894V135.675C56.8059 135.545 58.4971 134.992 59.4077 134.016C60.3183 132.975 60.8062 131.577 60.8712 129.821C61.0013 127.999 61.0664 125.95 61.0664 123.674V81.5243C61.0664 80.2234 61.0989 78.9875 61.1639 77.8167C61.229 76.5808 61.294 75.4751 61.3591 74.4994C60.1883 74.5644 59.0174 74.6295 57.8466 74.6945C56.6758 74.7596 55.505 74.8246 54.3342 74.8897V70.5967H76.287V73.8164C73.8803 73.8815 72.1892 74.4343 71.2135 75.4751C70.3028 76.5158 69.7825 77.9143 69.6524 79.6705C69.5873 81.4267 69.5548 83.4757 69.5548 85.8173V102.014H104.484V81.5243C104.484 80.2234 104.517 78.9875 104.582 77.8167C104.647 76.5808 104.712 75.4751 104.777 74.4994C103.606 74.5644 102.435 74.6295 101.265 74.6945C100.094 74.7596 98.9229 74.8246 97.752 74.8897V70.5967H119.705V73.8164C117.298 73.8815 115.607 74.4343 114.631 75.4751C113.721 76.5158 113.2 77.9143 113.07 79.6705C113.005 81.4267 112.973 83.4757 112.973 85.8173V127.284C112.973 129.04 112.94 130.569 112.875 131.87C112.875 133.105 112.81 134.146 112.68 134.992C113.851 134.927 115.022 134.862 116.192 134.797C117.363 134.732 118.534 134.667 119.705 134.601V138.894H97.752V135.675C100.224 135.545 101.915 134.992 102.826 134.016C103.736 132.975 104.224 131.577 104.289 129.821C104.419 127.999 104.484 125.95 104.484 123.674V105.916L69.5548 106.307V127.284C69.5548 129.04 69.5223 130.569 69.4572 131.87C69.4572 133.105 69.3922 134.146 69.2621 134.992C70.4329 134.927 71.6037 134.862 72.7746 134.797C73.9454 134.732 75.1162 134.667 76.287 134.601V138.894H54.3342Z" fill="#87EFFF"/>
<path d="M54.3342 138.894H52.4751V140.753H54.3342V138.894ZM54.3342 135.675L54.2364 133.818L52.4751 133.911V135.675H54.3342ZM59.4077 134.016L60.7667 135.284L60.7871 135.263L60.8067 135.24L59.4077 134.016ZM60.8712 129.821L59.0169 129.688L59.0147 129.72L59.0135 129.752L60.8712 129.821ZM61.1639 77.8167L63.0201 77.9198L63.0204 77.9144L61.1639 77.8167ZM61.3591 74.4994L63.214 74.623L63.3537 72.5267L61.256 72.6432L61.3591 74.4994ZM57.8466 74.6945L57.7435 72.8384L57.7435 72.8384L57.8466 74.6945ZM54.3342 74.8897H52.4751V76.8548L54.4373 76.7458L54.3342 74.8897ZM54.3342 70.5967V68.7376H52.4751V70.5967H54.3342ZM76.287 70.5967H78.146V68.7376H76.287V70.5967ZM76.287 73.8164L76.3372 75.6747L78.146 75.6258V73.8164H76.287ZM71.2135 75.4751L69.8573 74.2036L69.8354 74.2269L69.8144 74.2509L71.2135 75.4751ZM69.6524 79.6705L67.7985 79.5332L67.7959 79.5674L67.7946 79.6017L69.6524 79.6705ZM69.5548 102.014H67.6958V103.873H69.5548V102.014ZM104.484 102.014V103.873H106.343V102.014H104.484ZM104.582 77.8167L106.438 77.9198L106.438 77.9144L104.582 77.8167ZM104.777 74.4994L106.632 74.623L106.772 72.5267L104.674 72.6432L104.777 74.4994ZM101.265 74.6945L101.161 72.8384L101.161 72.8384L101.265 74.6945ZM97.752 74.8897H95.893V76.8548L97.8552 76.7458L97.752 74.8897ZM97.752 70.5967V68.7376H95.893V70.5967H97.752ZM119.705 70.5967H121.564V68.7376H119.705V70.5967ZM119.705 73.8164L119.755 75.6747L121.564 75.6258V73.8164H119.705ZM114.631 75.4751L113.275 74.2036L113.253 74.2269L113.232 74.2509L114.631 75.4751ZM113.07 79.6705L111.216 79.5332L111.214 79.5674L111.213 79.6017L113.07 79.6705ZM112.875 131.87L111.018 131.777L111.016 131.823V131.87H112.875ZM112.68 134.992L110.843 134.709L110.494 136.975L112.783 136.848L112.68 134.992ZM116.192 134.797L116.089 132.94L116.089 132.94L116.192 134.797ZM119.705 134.601H121.564V132.636L119.602 132.745L119.705 134.601ZM119.705 138.894V140.753H121.564V138.894H119.705ZM97.752 138.894H95.893V140.753H97.752V138.894ZM97.752 135.675L97.6543 133.818L95.893 133.911V135.675H97.752ZM102.826 134.016L104.185 135.284L104.205 135.263L104.225 135.24L102.826 134.016ZM104.289 129.821L102.435 129.688L102.433 129.72L102.431 129.752L104.289 129.821ZM104.484 105.916H106.343V104.036L104.463 104.057L104.484 105.916ZM69.5548 106.307L69.534 104.448L67.6958 104.468V106.307H69.5548ZM69.4572 131.87L67.6006 131.777L67.5982 131.823V131.87H69.4572ZM69.2621 134.992L67.4247 134.709L67.0761 136.975L69.3652 136.848L69.2621 134.992ZM72.7746 134.797L72.6714 132.94L72.6714 132.94L72.7746 134.797ZM76.287 134.601H78.146V132.636L76.1839 132.745L76.287 134.601ZM76.287 138.894V140.753H78.146V138.894H76.287ZM56.1932 138.894V135.675H52.4751V138.894H56.1932ZM54.4319 137.531C57.0163 137.395 59.3415 136.812 60.7667 135.284L58.0487 132.748C57.6527 133.172 56.5954 133.694 54.2364 133.818L54.4319 137.531ZM60.8067 135.24C62.0672 133.8 62.6525 131.954 62.729 129.889L59.0135 129.752C58.9599 131.199 58.5695 132.151 58.0087 132.792L60.8067 135.24ZM62.7255 129.953C62.8594 128.079 62.9254 125.984 62.9254 123.674H59.2074C59.2074 125.916 59.1432 127.92 59.0169 129.688L62.7255 129.953ZM62.9254 123.674V81.5243H59.2074V123.674H62.9254ZM62.9254 81.5243C62.9254 80.2541 62.9571 79.0528 63.0201 77.9198L59.3078 77.7136C59.2406 78.9222 59.2074 80.1927 59.2074 81.5243H62.9254ZM63.0204 77.9144C63.0851 76.6851 63.1496 75.5882 63.214 74.623L59.5042 74.3757C59.4384 75.362 59.3729 76.4766 59.3075 77.719L63.0204 77.9144ZM61.256 72.6432C61.1864 72.6471 60.8865 72.6638 60.8169 72.6676C60.7473 72.6715 60.4474 72.6882 60.3778 72.692C60.3082 72.6959 60.0084 72.7126 59.9388 72.7164C59.8692 72.7203 59.5693 72.7369 59.4997 72.7408C59.4327 72.7445 59.5531 72.7378 59.486 72.7416C59.4067 72.746 59.5516 72.7379 59.4723 72.7423C59.4681 72.7426 59.449 72.7436 59.4448 72.7439C59.3778 72.7476 59.4982 72.7409 59.4311 72.7446C59.4288 72.7447 59.4265 72.7449 59.4243 72.745C59.422 72.7451 59.4197 72.7453 59.4174 72.7454C59.3442 72.7494 59.4769 72.7421 59.4037 72.7461C59.4014 72.7463 59.3991 72.7464 59.3968 72.7465C59.3945 72.7467 59.3922 72.7468 59.39 72.7469C59.3705 72.748 59.3545 72.7489 59.3351 72.75C59.2558 72.7544 59.4006 72.7463 59.3214 72.7507C59.3191 72.7508 59.3168 72.751 59.3145 72.7511C59.3122 72.7512 59.3099 72.7514 59.3076 72.7515C59.2345 72.7555 59.3671 72.7482 59.2939 72.7522C59.2916 72.7524 59.2893 72.7525 59.2871 72.7526C59.2848 72.7528 59.2825 72.7529 59.2802 72.753C59.2017 72.7574 59.2489 72.7547 59.1704 72.7591C59.151 72.7602 59.135 72.7611 59.1155 72.7622C59.0363 72.7666 59.1811 72.7585 59.1018 72.7629C59.0995 72.763 59.0973 72.7632 59.095 72.7633C59.0927 72.7634 59.0904 72.7635 59.0881 72.7637C59.0149 72.7677 59.1476 72.7604 59.0744 72.7644C59.0721 72.7646 59.0698 72.7647 59.0675 72.7648C59.0652 72.7649 59.063 72.7651 59.0607 72.7652C58.9936 72.7689 59.114 72.7622 59.0469 72.766C58.9677 72.7704 59.1125 72.7623 59.0332 72.7667C59.029 72.767 59.01 72.768 59.0058 72.7683C58.9387 72.772 59.0591 72.7653 58.9921 72.769C58.9898 72.7691 58.9875 72.7693 58.9852 72.7694C58.9829 72.7695 58.9806 72.7696 58.9783 72.7698C58.9052 72.7738 59.0378 72.7665 58.9646 72.7705C58.9623 72.7707 58.96 72.7708 58.9578 72.7709C58.9555 72.771 58.9532 72.7712 58.9509 72.7713C58.9315 72.7724 58.9155 72.7733 58.896 72.7743C58.8168 72.7788 58.9616 72.7707 58.8823 72.7751C58.88 72.7752 58.8777 72.7754 58.8754 72.7755C58.8732 72.7756 58.8709 72.7757 58.8686 72.7759C58.7954 72.7799 58.928 72.7726 58.8549 72.7766C58.8526 72.7768 58.8503 72.7769 58.848 72.777C58.8457 72.7771 58.8434 72.7773 58.8411 72.7774C58.7627 72.7818 58.8098 72.7791 58.7314 72.7835C58.7123 72.7846 58.6956 72.7855 58.6765 72.7865C58.6094 72.7903 58.7298 72.7836 58.6628 72.7873C58.6605 72.7874 58.6582 72.7876 58.6559 72.7877C58.6536 72.7878 58.6513 72.7879 58.649 72.7881C58.5759 72.7921 58.7085 72.7848 58.6353 72.7888C58.633 72.789 58.6308 72.7891 58.6285 72.7892C58.6262 72.7893 58.6239 72.7895 58.6216 72.7896C58.5545 72.7933 58.675 72.7866 58.6079 72.7904C58.5286 72.7948 58.6734 72.7867 58.5942 72.7911C58.59 72.7914 58.5709 72.7924 58.5667 72.7926C58.4997 72.7964 58.6201 72.7897 58.553 72.7934C58.5507 72.7935 58.5484 72.7937 58.5461 72.7938C58.5439 72.7939 58.5416 72.794 58.5393 72.7942C58.4661 72.7982 58.5987 72.7909 58.5256 72.7949C58.5233 72.7951 58.521 72.7952 58.5187 72.7953C58.5164 72.7954 58.5141 72.7956 58.5118 72.7957C58.4924 72.7968 58.4764 72.7977 58.457 72.7987C58.3777 72.8031 58.5225 72.7951 58.4432 72.7995C58.441 72.7996 58.4387 72.7998 58.4364 72.7999C58.4341 72.8 58.4318 72.8001 58.4295 72.8003C58.3564 72.8043 58.489 72.797 58.4158 72.801C58.4135 72.8012 58.4112 72.8013 58.4089 72.8014C58.4067 72.8015 58.4044 72.8017 58.4021 72.8018C58.3236 72.8061 58.3708 72.8035 58.2923 72.8079C58.2729 72.809 58.2569 72.8099 58.2374 72.8109C58.1582 72.8153 58.303 72.8073 58.2237 72.8117C58.2214 72.8118 58.2191 72.812 58.2169 72.8121C58.2146 72.8122 58.2123 72.8123 58.21 72.8125C58.1368 72.8165 58.2694 72.8092 58.1963 72.8132C58.194 72.8133 58.1917 72.8135 58.1894 72.8136C58.1871 72.8137 58.1848 72.8139 58.1826 72.814C58.1155 72.8177 58.2359 72.811 58.1688 72.8147C58.0896 72.8192 58.2344 72.8111 58.1551 72.8155C58.1509 72.8157 58.1319 72.8168 58.1277 72.817C58.0606 72.8208 58.181 72.8141 58.1139 72.8178C58.1117 72.8179 58.1094 72.8181 58.1071 72.8182C58.1048 72.8183 58.1025 72.8184 58.1002 72.8186C58.0271 72.8226 58.1597 72.8153 58.0865 72.8193C58.0842 72.8194 58.0819 72.8196 58.0796 72.8197C58.0774 72.8198 58.0751 72.82 58.0728 72.8201C58.0533 72.8212 58.0373 72.8221 58.0179 72.8231C57.9386 72.8275 58.0835 72.8195 58.0042 72.8239C58.0019 72.824 57.9996 72.8241 57.9973 72.8243C57.995 72.8244 57.9928 72.8245 57.9905 72.8247C57.9173 72.8287 58.0499 72.8214 57.9767 72.8254C57.9745 72.8255 57.9722 72.8257 57.9699 72.8258C57.9676 72.8259 57.9653 72.8261 57.963 72.8262C57.8846 72.8305 57.9317 72.8279 57.8533 72.8323C57.8338 72.8334 57.8178 72.8342 57.7984 72.8353C57.7191 72.8397 57.8639 72.8317 57.7847 72.8361C57.7824 72.8362 57.7801 72.8363 57.7778 72.8365C57.7755 72.8366 57.7732 72.8367 57.7709 72.8369C57.6978 72.8409 57.8304 72.8335 57.7572 72.8376C57.7549 72.8377 57.7526 72.8379 57.7504 72.838C57.7481 72.8381 57.7458 72.8382 57.7435 72.8384L57.9497 76.5507C58.4082 76.5252 59.2475 76.4786 59.706 76.4531C59.7346 76.4515 60.1164 76.4303 60.145 76.4287C60.1737 76.4271 60.5554 76.4059 60.5841 76.4043C60.6127 76.4027 60.9945 76.3815 61.0231 76.3799C61.0518 76.3783 61.4335 76.3571 61.4622 76.3555L61.256 72.6432ZM57.7435 72.8384C56.5727 72.9034 55.4019 72.9685 54.231 73.0335L54.4373 76.7458C55.6081 76.6808 56.7789 76.6157 57.9497 76.5507L57.7435 72.8384ZM56.1932 74.8897V70.5967H52.4751V74.8897H56.1932ZM54.3342 72.4557H76.287V68.7376H54.3342V72.4557ZM74.428 70.5967V73.8164H78.146V70.5967H74.428ZM76.2368 71.9581C73.6553 72.0279 71.3426 72.6193 69.8573 74.2036L72.5697 76.7465C73.0357 76.2494 74.1054 75.7351 76.3372 75.6747L76.2368 71.9581ZM69.8144 74.2509C68.5734 75.6692 67.9501 77.4859 67.7985 79.5332L71.5063 79.8078C71.6148 78.3427 72.0323 77.3624 72.6125 76.6992L69.8144 74.2509ZM67.7946 79.6017C67.7285 81.3869 67.6958 83.4597 67.6958 85.8173H71.4138C71.4138 83.4916 71.4461 81.4665 71.5101 79.7393L67.7946 79.6017ZM67.6958 85.8173V102.014H71.4138V85.8173H67.6958ZM69.5548 103.873H104.484V100.155H69.5548V103.873ZM106.343 102.014V81.5243H102.625V102.014H106.343ZM106.343 81.5243C106.343 80.2541 106.375 79.0528 106.438 77.9198L102.726 77.7136C102.659 78.9222 102.625 80.1927 102.625 81.5243H106.343ZM106.438 77.9144C106.503 76.6851 106.568 75.5882 106.632 74.623L102.922 74.3757C102.856 75.362 102.791 76.4766 102.725 77.719L106.438 77.9144ZM104.674 72.6432C104.339 72.6618 104.13 72.6734 103.796 72.692C103.461 72.7106 103.252 72.7222 102.918 72.7408C102.204 72.7805 101.875 72.7987 101.161 72.8384L101.368 76.5507C101.37 76.5505 101.372 76.5504 101.374 76.5503C101.377 76.5502 101.379 76.55 101.381 76.5499C101.384 76.5498 101.386 76.5496 101.388 76.5495C101.39 76.5494 101.393 76.5493 101.395 76.5491C101.397 76.549 101.4 76.5489 101.402 76.5488C101.404 76.5486 101.407 76.5485 101.409 76.5484C101.411 76.5482 101.413 76.5481 101.416 76.548C101.418 76.5479 101.42 76.5477 101.423 76.5476C101.429 76.5472 101.471 76.5449 101.477 76.5446C101.55 76.5405 101.515 76.5425 101.587 76.5385C101.589 76.5383 101.592 76.5382 101.594 76.5381C101.596 76.538 101.599 76.5378 101.601 76.5377C101.603 76.5376 101.605 76.5375 101.608 76.5373C101.61 76.5372 101.612 76.5371 101.615 76.5369C101.617 76.5368 101.619 76.5367 101.621 76.5366C101.624 76.5364 101.626 76.5363 101.628 76.5362C101.631 76.5361 101.633 76.5359 101.635 76.5358C101.637 76.5357 101.64 76.5355 101.642 76.5354C101.696 76.5324 101.643 76.5354 101.697 76.5324C101.769 76.5283 101.734 76.5303 101.807 76.5263C101.809 76.5261 101.811 76.526 101.814 76.5259C101.816 76.5258 101.818 76.5256 101.82 76.5255C101.823 76.5254 101.825 76.5253 101.827 76.5251C101.83 76.525 101.832 76.5249 101.834 76.5247C101.836 76.5246 101.839 76.5245 101.841 76.5244C101.843 76.5242 101.846 76.5241 101.848 76.524C101.85 76.5239 101.852 76.5237 101.855 76.5236C101.857 76.5235 101.859 76.5233 101.862 76.5232C101.868 76.5229 101.91 76.5205 101.916 76.5202C101.989 76.5161 101.954 76.5181 102.026 76.5141C102.028 76.5139 102.031 76.5138 102.033 76.5137C102.035 76.5136 102.038 76.5134 102.04 76.5133C102.042 76.5132 102.045 76.5131 102.047 76.5129C102.049 76.5128 102.051 76.5127 102.054 76.5126C102.056 76.5124 102.058 76.5123 102.061 76.5122C102.063 76.512 102.065 76.5119 102.067 76.5118C102.07 76.5117 102.072 76.5115 102.074 76.5114C102.077 76.5113 102.079 76.5112 102.081 76.511C102.135 76.508 102.082 76.511 102.136 76.508C102.208 76.504 102.173 76.5059 102.246 76.5019C102.248 76.5018 102.25 76.5016 102.253 76.5015C102.255 76.5014 102.257 76.5012 102.259 76.5011C102.262 76.501 102.264 76.5009 102.266 76.5007C102.269 76.5006 102.271 76.5005 102.273 76.5004C102.275 76.5002 102.278 76.5001 102.28 76.5C102.282 76.4998 102.285 76.4997 102.287 76.4996C102.289 76.4995 102.291 76.4993 102.294 76.4992C102.296 76.4991 102.298 76.499 102.301 76.4988C102.307 76.4985 102.349 76.4961 102.356 76.4958C102.428 76.4918 102.393 76.4937 102.465 76.4897C102.468 76.4896 102.47 76.4894 102.472 76.4893C102.474 76.4892 102.477 76.489 102.479 76.4889C102.481 76.4888 102.484 76.4887 102.486 76.4885C102.488 76.4884 102.49 76.4883 102.493 76.4882C102.495 76.488 102.497 76.4879 102.5 76.4878C102.502 76.4877 102.504 76.4875 102.506 76.4874C102.509 76.4873 102.511 76.4871 102.513 76.487C102.516 76.4869 102.518 76.4868 102.52 76.4866C102.574 76.4836 102.521 76.4866 102.575 76.4836C102.648 76.4796 102.612 76.4815 102.685 76.4775C102.687 76.4774 102.689 76.4772 102.692 76.4771C102.694 76.477 102.696 76.4769 102.699 76.4767C102.701 76.4766 102.703 76.4765 102.705 76.4763C102.708 76.4762 102.71 76.4761 102.712 76.476C102.715 76.4758 102.717 76.4757 102.719 76.4756C102.721 76.4755 102.724 76.4753 102.726 76.4752C102.728 76.4751 102.731 76.4749 102.733 76.4748C102.735 76.4747 102.737 76.4746 102.74 76.4744C102.746 76.4741 102.788 76.4718 102.795 76.4714C102.867 76.4674 102.832 76.4693 102.904 76.4653C102.907 76.4652 102.909 76.465 102.911 76.4649C102.913 76.4648 102.916 76.4647 102.918 76.4645C102.92 76.4644 102.923 76.4643 102.925 76.4641C102.927 76.464 102.929 76.4639 102.932 76.4638C102.934 76.4636 102.936 76.4635 102.939 76.4634C102.941 76.4633 102.943 76.4631 102.945 76.463C102.948 76.4629 102.95 76.4628 102.952 76.4626C102.955 76.4625 102.957 76.4624 102.959 76.4622C103.013 76.4592 102.96 76.4622 103.014 76.4592C103.087 76.4552 103.051 76.4571 103.124 76.4531C103.157 76.4512 103.529 76.4306 103.563 76.4287C103.596 76.4268 103.969 76.4062 104.002 76.4043C104.035 76.4025 104.408 76.3818 104.441 76.3799C104.474 76.3781 104.847 76.3574 104.88 76.3555L104.674 72.6432ZM101.161 72.8384C99.9906 72.9034 98.8197 72.9685 97.6489 73.0335L97.8552 76.7458C99.026 76.6808 100.197 76.6157 101.368 76.5507L101.161 72.8384ZM99.6111 74.8897V70.5967H95.893V74.8897H99.6111ZM97.752 72.4557H119.705V68.7376H97.752V72.4557ZM117.846 70.5967V73.8164H121.564V70.5967H117.846ZM119.655 71.9581C117.073 72.0279 114.76 72.6193 113.275 74.2036L115.988 76.7465C116.454 76.2494 117.523 75.7351 119.755 75.6747L119.655 71.9581ZM113.232 74.2509C111.991 75.6692 111.368 77.4859 111.216 79.5332L114.924 79.8078C115.033 78.3427 115.45 77.3624 116.03 76.6992L113.232 74.2509ZM111.213 79.6017C111.146 81.3869 111.114 83.4597 111.114 85.8173H114.832C114.832 83.4916 114.864 81.4665 114.928 79.7393L111.213 79.6017ZM111.114 85.8173V127.284H114.832V85.8173H111.114ZM111.114 127.284C111.114 129.019 111.082 130.515 111.018 131.777L114.732 131.962C114.799 130.622 114.832 129.061 114.832 127.284H111.114ZM111.016 131.87C111.016 133.048 110.954 133.988 110.843 134.709L114.517 135.274C114.667 134.304 114.734 133.162 114.734 131.87H111.016ZM112.783 136.848C113.954 136.783 115.125 136.718 116.296 136.653L116.089 132.94C114.919 133.006 113.748 133.071 112.577 133.136L112.783 136.848ZM116.296 136.653C117.466 136.588 118.637 136.523 119.808 136.458L119.602 132.745C118.431 132.81 117.26 132.875 116.089 132.94L116.296 136.653ZM117.846 134.601V138.894H121.564V134.601H117.846ZM119.705 137.035H97.752V140.753H119.705V137.035ZM99.6111 138.894V135.675H95.893V138.894H99.6111ZM97.8498 137.531C100.434 137.395 102.759 136.812 104.185 135.284L101.467 132.748C101.071 133.172 100.013 133.694 97.6543 133.818L97.8498 137.531ZM104.225 135.24C105.485 133.8 106.07 131.954 106.147 129.889L102.431 129.752C102.378 131.199 101.987 132.151 101.427 132.792L104.225 135.24ZM106.143 129.953C106.277 128.079 106.343 125.984 106.343 123.674H102.625C102.625 125.916 102.561 127.92 102.435 129.688L106.143 129.953ZM106.343 123.674V105.916H102.625V123.674H106.343ZM104.463 104.057L69.534 104.448L69.5756 108.166L104.505 107.775L104.463 104.057ZM67.6958 106.307V127.284H71.4138V106.307H67.6958ZM67.6958 127.284C67.6958 129.019 67.6636 130.515 67.6006 131.777L71.3139 131.962C71.3809 130.622 71.4138 129.061 71.4138 127.284H67.6958ZM67.5982 131.87C67.5982 133.048 67.5356 133.988 67.4247 134.709L71.0995 135.274C71.2488 134.304 71.3162 133.162 71.3162 131.87H67.5982ZM69.3652 136.848C70.536 136.783 71.7069 136.718 72.8777 136.653L72.6714 132.94C71.5006 133.006 70.3298 133.071 69.159 133.136L69.3652 136.848ZM72.8777 136.653C74.0485 136.588 75.2193 136.523 76.3901 136.458L76.1839 132.745C75.0131 132.81 73.8423 132.875 72.6714 132.94L72.8777 136.653ZM74.428 134.601V138.894H78.146V134.601H74.428ZM76.287 137.035H54.3342V140.753H76.287V137.035Z" fill="#87EFFF" mask="url(#path-2-outside-1_33_2)"/>
</svg>
